<svg width="32" height="32" viewBox="0 0 32 32" fill="none" xmlns="http://www.w3.org/2000/svg">
<path fill-rule="evenodd" clip-rule="evenodd" d="M22.6706 22.2529C22.6706 22.4829 22.4839 22.6696 22.2539 22.6696H19.7539C19.5239 22.6696 19.3372 22.4829 19.3372 22.2529V17.6696C19.3372 16.6263 18.8697 16.0029 18.0872 16.0029C17.3047 16.0029 16.8372 16.6263 16.8372 17.6696V22.2529C16.8372 22.4829 16.6506 22.6696 16.4206 22.6696H13.9206C13.6906 22.6696 13.5039 22.4829 13.5039 22.2529V13.9196C13.5039 13.6896 13.6906 13.5029 13.9206 13.5029H16.4206C16.6506 13.5029 16.8372 13.6896 16.8372 13.9196V14.1813C17.3789 13.7579 18.0172 13.5029 18.9206 13.5029C21.1981 13.5029 22.6706 15.1379 22.6706 17.6696V22.2529ZM11.0026 12.6693C10.0834 12.6693 9.33594 11.9218 9.33594 11.0026C9.33594 10.0834 10.0834 9.33594 11.0026 9.33594C11.9218 9.33594 12.6693 10.0834 12.6693 11.0026C12.6693 11.9218 11.9218 12.6693 11.0026 12.6693ZM12.6693 22.2539C12.6693 22.4839 12.4826 22.6706 12.2526 22.6706H9.7526C9.5226 22.6706 9.33594 22.4839 9.33594 22.2539V13.9206C9.33594 13.6906 9.5226 13.5039 9.7526 13.5039H12.2526C12.4826 13.5039 12.6693 13.6906 12.6693 13.9206V22.2539ZM23.5026 6.83594H8.5026C7.58344 6.83594 6.83594 7.58344 6.83594 8.5026V23.5026C6.83594 24.4218 7.58344 25.1693 8.5026 25.1693H23.5026C24.4218 25.1693 25.1693 24.4218 25.1693 23.5026V8.5026C25.1693 7.58344 24.4218 6.83594 23.5026 6.83594Z" fill="#142470"/>
</svg>
