<svg width="32" height="32" viewBox="0 0 32 32" fill="none" xmlns="http://www.w3.org/2000/svg">
<path d="M25.2299 10.7685C24.5558 11.0593 23.8223 11.2685 23.0667 11.35C23.8512 10.884 24.4386 10.1477 24.7188 9.27935C23.9827 9.71725 23.1763 10.0243 22.3353 10.1869C21.9839 9.81117 21.5588 9.51183 21.0865 9.30756C20.6143 9.10328 20.1051 8.99845 19.5906 8.99958C17.5089 8.99958 15.8347 10.687 15.8347 12.7577C15.8347 13.0484 15.8699 13.3392 15.9272 13.619C12.8102 13.456 10.0302 11.9668 8.18197 9.68687C7.84521 10.2621 7.66873 10.917 7.6709 11.5835C7.6709 12.8876 8.33396 14.0375 9.34508 14.7138C8.74921 14.6903 8.1673 14.5266 7.64667 14.2358V14.282C7.64667 16.1082 8.93755 17.6216 10.658 17.9696C10.335 18.0535 10.0026 18.0965 9.6689 18.0974C9.42438 18.0974 9.19308 18.0732 8.95958 18.0401C9.43539 19.5293 10.821 20.6109 12.4709 20.6461C11.1801 21.6572 9.56316 22.252 7.80748 22.252C7.49247 22.252 7.20169 22.241 6.8999 22.2057C8.56526 23.2741 10.5412 23.8909 12.6692 23.8909C19.5774 23.8909 23.3575 18.1679 23.3575 13.2004C23.3575 13.0374 23.3575 12.8744 23.3465 12.7114C24.0778 12.1761 24.7188 11.513 25.2299 10.7685Z" fill="#142470"/>
</svg>
