<svg width="161" height="142" viewBox="0 0 161 142" fill="none" xmlns="http://www.w3.org/2000/svg">
  <path d="M29.7888 1.80273H22.0916V0.818359H29.7888V1.80273ZM37.4861 1.80273H29.7888V0.818359H37.4861V1.80273ZM45.1833 1.80273H37.4861V0.818359H45.1833V1.80273ZM52.8806 1.80273H45.1833V0.818359H52.8806V1.80273ZM60.5779 1.80273H52.8806V0.818359H60.5779V1.80273ZM68.2751 1.80273H60.5779V0.818359H68.2751V1.80273ZM75.9724 1.80273H68.2751V0.818359H75.9724V1.80273ZM83.6697 1.80273H75.9724V0.818359H83.6697V1.80273ZM91.3669 1.80273H83.6697V0.818359H91.3669V1.80273ZM99.0642 1.80273H91.3669V0.818359H99.0642V1.80273ZM106.761 1.80273H99.0642V0.818359H106.761V1.80273ZM114.459 1.80273H106.761V0.818359H114.459V1.80273ZM122.156 1.80273H114.459V0.818359H122.156V1.80273ZM129.853 1.80273H122.156V0.818359H129.853V1.80273ZM21.0046 9.34082L16.3152 20.4697H15.1804L19.8699 9.34082H21.0046ZM29.0095 20.4697H27.8748L23.1853 9.34082H24.3201L29.0095 20.4697ZM136.771 20.4697H135.636L130.947 9.34082H132.082L136.771 20.4697ZM21.3123 40.4697H20.1775L15.488 29.3408H16.6228L21.3123 40.4697ZM36.7068 40.4697H35.572L30.8826 29.3408H32.0173L36.7068 40.4697ZM144.469 40.4697H143.334L138.644 29.3408H139.779L144.469 40.4697ZM29.0095 60.4697H27.8748L23.1853 49.3408H24.3201L29.0095 60.4697ZM44.4041 60.4697H43.2693L38.5798 49.3408H39.7146L44.4041 60.4697ZM68.2751 61.8027H60.5779V60.8184H68.2751V61.8027ZM75.9724 61.8027H68.2751V60.8184H75.9724V61.8027ZM83.6697 61.8027H75.9724V60.8184H83.6697V61.8027ZM91.3669 61.8027H83.6697V60.8184H91.3669V61.8027ZM99.0642 61.8027H91.3669V60.8184H99.0642V61.8027ZM106.761 61.8027H99.0642V60.8184H106.761V61.8027ZM114.459 61.8027H106.761V60.8184H114.459V61.8027ZM122.156 61.8027H114.459V60.8184H122.156V61.8027ZM129.853 61.8027H122.156V60.8184H129.853V61.8027ZM137.551 61.8027H129.853V60.8184H137.551V61.8027ZM145.248 61.8027H137.551V60.8184H145.248V61.8027ZM152.166 60.4697H151.031L146.342 49.3408H147.476L152.166 60.4697ZM36.7068 80.4697H35.572L30.8826 69.3408H32.0173L36.7068 80.4697ZM52.1013 80.4697H50.9666L46.2771 69.3408H47.4119L52.1013 80.4697ZM59.491 69.3408L54.8015 80.4697H53.6667L58.3562 69.3408H59.491ZM68.2751 81.8027H60.5779V80.8184H68.2751V81.8027ZM75.9724 81.8027H68.2751V80.8184H75.9724V81.8027ZM83.6697 81.8027H75.9724V80.8184H83.6697V81.8027ZM91.3669 81.8027H83.6697V80.8184H91.3669V81.8027ZM99.0642 81.8027H91.3669V80.8184H99.0642V81.8027ZM106.761 81.8027H99.0642V80.8184H106.761V81.8027ZM114.459 81.8027H106.761V80.8184H114.459V81.8027ZM122.156 81.8027H114.459V80.8184H122.156V81.8027ZM129.853 81.8027H122.156V80.8184H129.853V81.8027ZM137.551 81.8027H129.853V80.8184H137.551V81.8027ZM145.248 81.8027H137.551V80.8184H145.248V81.8027ZM151.858 69.3408L147.169 80.4697H146.034L150.723 69.3408H151.858ZM44.4041 100.47H43.2693L38.5798 89.3408H39.7146L44.4041 100.47ZM51.7937 89.3408L47.1042 100.47H45.9695L50.6589 89.3408H51.7937Z" fill="#96ADFF"/>
  <path d="M74.8445 33.2578L74.3796 34.0713L72.4587 32.7998L72.616 35.1377H71.6384L71.7888 32.7998L69.8269 34.0713L69.3962 33.2715L71.4949 32.2393L69.3962 31.1865L69.8679 30.3867L71.8025 31.6787L71.6384 29.3408H72.616L72.4451 31.6787L74.3796 30.373L74.8582 31.2139L72.7527 32.2529L74.8445 33.2578ZM90.239 33.2578L89.7742 34.0713L87.8533 32.7998L88.0105 35.1377H87.033L87.1833 32.7998L85.2214 34.0713L84.7908 33.2715L86.8894 32.2393L84.7908 31.1865L85.2625 30.3867L87.197 31.6787L87.033 29.3408H88.0105L87.8396 31.6787L89.7742 30.373L90.2527 31.2139L88.1472 32.2529L90.239 33.2578ZM105.634 33.2578L105.169 34.0713L103.248 32.7998L103.405 35.1377H102.427L102.578 32.7998L100.616 34.0713L100.185 33.2715L102.284 32.2393L100.185 31.1865L100.657 30.3867L102.592 31.6787L102.427 29.3408H103.405L103.234 31.6787L105.169 30.373L105.647 31.2139L103.542 32.2529L105.634 33.2578Z" fill="#D9DAE5"/>
  <path d="M5.94507 132.8C5.94507 133.164 5.87671 133.527 5.73999 133.887C5.60327 134.242 5.39136 134.561 5.10425 134.844C4.81714 135.126 4.45028 135.356 4.00366 135.534C3.55705 135.707 3.02384 135.794 2.40405 135.794H1.29663V139H0.079834V130.065H2.59546C3.03752 130.065 3.46134 130.116 3.86694 130.216C4.27254 130.312 4.62801 130.469 4.93335 130.688C5.24325 130.906 5.48934 131.189 5.67163 131.535C5.85392 131.882 5.94507 132.303 5.94507 132.8ZM4.68042 132.854C4.68042 132.28 4.49129 131.84 4.11304 131.535C3.73934 131.23 3.21525 131.077 2.54077 131.077H1.29663V134.755H2.4314C3.15145 134.755 3.70516 134.598 4.09253 134.283C4.48446 133.969 4.68042 133.493 4.68042 132.854ZM10.1287 130.318H8.09839V129.341H11.3318V138.009H13.3757V139H7.8728V138.009H10.1287V130.318ZM19.8972 139L19.8699 138.077C19.4962 138.446 19.1156 138.713 18.7283 138.877C18.3455 139.041 17.9421 139.123 17.5183 139.123C17.1264 139.123 16.7914 139.073 16.5134 138.973C16.2354 138.872 16.0053 138.736 15.823 138.562C15.6453 138.385 15.5131 138.177 15.4265 137.94C15.3445 137.703 15.3035 137.446 15.3035 137.168C15.3035 136.48 15.5587 135.942 16.0691 135.555C16.5841 135.163 17.3429 134.967 18.3455 134.967H19.7673V134.365C19.7673 133.96 19.6375 133.636 19.3777 133.395C19.1179 133.148 18.7214 133.025 18.1882 133.025C17.8009 133.025 17.4181 133.069 17.0398 133.155C16.6661 133.242 16.2787 133.365 15.8777 133.524V132.451C16.0281 132.396 16.1944 132.344 16.3767 132.294C16.5636 132.239 16.7595 132.191 16.9646 132.15C17.1697 132.109 17.3839 132.077 17.6072 132.055C17.8305 132.027 18.0561 132.014 18.2839 132.014C18.6986 132.014 19.0723 132.059 19.405 132.15C19.7377 132.242 20.018 132.381 20.2458 132.567C20.4783 132.754 20.656 132.989 20.7791 133.271C20.9021 133.554 20.9636 133.887 20.9636 134.27V139H19.8972ZM19.7673 135.876H18.2566C17.9604 135.876 17.7052 135.906 17.491 135.965C17.2768 136.024 17.1013 136.108 16.9646 136.218C16.8279 136.327 16.7253 136.459 16.657 136.614C16.5932 136.765 16.5613 136.936 16.5613 137.127C16.5613 137.259 16.5818 137.387 16.6228 137.51C16.6638 137.628 16.7299 137.735 16.821 137.831C16.9122 137.922 17.0307 137.995 17.1765 138.05C17.3223 138.104 17.5001 138.132 17.7097 138.132C17.9832 138.132 18.2953 138.05 18.6462 137.886C19.0017 137.717 19.3754 137.453 19.7673 137.093V135.876ZM29.2898 132.137L26.9519 138.275C26.7104 138.9 26.4597 139.438 26.2 139.889C25.9447 140.34 25.6645 140.709 25.3591 140.996C25.0538 141.288 24.7188 141.502 24.3542 141.639C23.9897 141.775 23.5818 141.844 23.1306 141.844C23.0121 141.844 22.905 141.841 22.8093 141.837C22.7136 141.832 22.6088 141.826 22.4949 141.816V140.736C22.5951 140.75 22.7045 140.761 22.823 140.771C22.9415 140.784 23.0668 140.791 23.199 140.791C23.4177 140.791 23.6205 140.759 23.8074 140.695C23.9988 140.632 24.1788 140.527 24.3474 140.381C24.516 140.24 24.6778 140.055 24.8328 139.827C24.9877 139.599 25.1381 139.324 25.2839 139L22.5427 132.137H23.8962L25.6326 136.676L25.9812 137.742L26.3777 136.648L27.9841 132.137H29.2898ZM44.9373 132.137L43.9392 139H42.4968L41.5056 136.129L41.3074 135.432L41.0818 136.17L40.1316 139H38.7302L37.739 132.137H38.9011L39.4753 136.799L39.5984 137.838L39.8923 136.929L40.8904 133.846H41.7449L42.8181 136.888L43.1257 137.797L43.2283 136.833L43.7615 132.137H44.9373ZM48.615 133.121H46.5847V132.137H49.8181V138.009H51.8621V139H46.3591V138.009H48.615V133.121ZM49.032 129.259C49.1641 129.259 49.2872 129.284 49.4011 129.334C49.5151 129.38 49.613 129.446 49.6951 129.532C49.7817 129.619 49.8477 129.719 49.8933 129.833C49.9434 129.942 49.9685 130.063 49.9685 130.195C49.9685 130.323 49.9434 130.444 49.8933 130.558C49.8477 130.672 49.7817 130.772 49.6951 130.858C49.613 130.945 49.5151 131.013 49.4011 131.063C49.2872 131.109 49.1641 131.132 49.032 131.132C48.8998 131.132 48.7768 131.109 48.6628 131.063C48.5489 131.013 48.4486 130.945 48.3621 130.858C48.28 130.772 48.2139 130.672 48.1638 130.558C48.1182 130.444 48.0955 130.323 48.0955 130.195C48.0955 130.063 48.1182 129.942 48.1638 129.833C48.2139 129.719 48.28 129.619 48.3621 129.532C48.4486 129.446 48.5489 129.38 48.6628 129.334C48.7768 129.284 48.8998 129.259 49.032 129.259ZM59.5046 138.904C59.2358 138.973 58.9578 139.021 58.6707 139.048C58.3835 139.08 58.0919 139.096 57.7957 139.096C56.9343 139.096 56.2917 138.902 55.8679 138.515C55.4441 138.123 55.2322 137.523 55.2322 136.717V133.135H53.3113V132.137H55.2322V130.25L56.4216 129.942V132.137H59.5046V133.135H56.4216V136.621C56.4216 137.113 56.5515 137.482 56.8113 137.729C57.0756 137.97 57.463 138.091 57.9734 138.091C58.1921 138.091 58.4314 138.075 58.6912 138.043C58.9509 138.007 59.2221 137.952 59.5046 137.879V138.904ZM67.1882 139H65.9988V134.618C65.9988 134.09 65.8985 133.695 65.698 133.436C65.502 133.171 65.2195 133.039 64.8503 133.039C64.6908 133.039 64.5404 133.062 64.3992 133.107C64.2625 133.148 64.1189 133.224 63.9685 133.333C63.8181 133.438 63.6541 133.581 63.4763 133.764C63.2986 133.946 63.0935 134.174 62.8611 134.447V139H61.6716V129.341H62.8611V132.137L62.8201 133.217C63.0069 132.993 63.1892 132.807 63.3669 132.656C63.5492 132.501 63.7292 132.376 63.907 132.28C64.0893 132.185 64.2738 132.116 64.4607 132.075C64.6475 132.034 64.8412 132.014 65.0417 132.014C65.7253 132.014 66.254 132.223 66.6277 132.643C67.0014 133.057 67.1882 133.684 67.1882 134.522V139ZM79.4041 133.121H77.3738V132.137H80.6072V138.009H82.6511V139H77.1482V138.009H79.4041V133.121ZM79.821 129.259C79.9532 129.259 80.0763 129.284 80.1902 129.334C80.3041 129.38 80.4021 129.446 80.4841 129.532C80.5707 129.619 80.6368 129.719 80.6824 129.833C80.7325 129.942 80.7576 130.063 80.7576 130.195C80.7576 130.323 80.7325 130.444 80.6824 130.558C80.6368 130.672 80.5707 130.772 80.4841 130.858C80.4021 130.945 80.3041 131.013 80.1902 131.063C80.0763 131.109 79.9532 131.132 79.821 131.132C79.6889 131.132 79.5658 131.109 79.4519 131.063C79.338 131.013 79.2377 130.945 79.1511 130.858C79.0691 130.772 79.003 130.672 78.9529 130.558C78.9073 130.444 78.8845 130.323 78.8845 130.195C78.8845 130.063 78.9073 129.942 78.9529 129.833C79.003 129.719 79.0691 129.619 79.1511 129.532C79.2377 129.446 79.338 129.38 79.4519 129.334C79.5658 129.284 79.6889 129.259 79.821 129.259ZM90.2937 138.904C90.0248 138.973 89.7468 139.021 89.4597 139.048C89.1726 139.08 88.8809 139.096 88.5847 139.096C87.7234 139.096 87.0808 138.902 86.657 138.515C86.2332 138.123 86.0212 137.523 86.0212 136.717V133.135H84.1003V132.137H86.0212V130.25L87.2107 129.942V132.137H90.2937V133.135H87.2107V136.621C87.2107 137.113 87.3406 137.482 87.6003 137.729C87.8647 137.97 88.252 138.091 88.7625 138.091C88.9812 138.091 89.2205 138.075 89.4802 138.043C89.74 138.007 90.0111 137.952 90.2937 137.879V138.904ZM106.262 132.137L103.925 138.275C103.683 138.9 103.432 139.438 103.173 139.889C102.917 140.34 102.637 140.709 102.332 140.996C102.026 141.288 101.691 141.502 101.327 141.639C100.962 141.775 100.554 141.844 100.103 141.844C99.9848 141.844 99.8777 141.841 99.782 141.837C99.6863 141.832 99.5815 141.826 99.4675 141.816V140.736C99.5678 140.75 99.6772 140.761 99.7957 140.771C99.9141 140.784 100.039 140.791 100.172 140.791C100.39 140.791 100.593 140.759 100.78 140.695C100.971 140.632 101.151 140.527 101.32 140.381C101.489 140.24 101.65 140.055 101.805 139.827C101.96 139.599 102.111 139.324 102.257 139L99.5154 132.137H100.869L102.605 136.676L102.954 137.742L103.35 136.648L104.957 132.137H106.262ZM113.83 135.514C113.83 136.047 113.755 136.537 113.604 136.983C113.454 137.425 113.237 137.806 112.955 138.125C112.672 138.439 112.328 138.686 111.923 138.863C111.517 139.036 111.057 139.123 110.542 139.123C110.05 139.123 109.608 139.048 109.216 138.897C108.828 138.743 108.498 138.517 108.224 138.221C107.955 137.924 107.748 137.558 107.602 137.12C107.461 136.683 107.39 136.179 107.39 135.609C107.39 135.076 107.466 134.591 107.616 134.153C107.766 133.711 107.983 133.333 108.265 133.019C108.548 132.7 108.892 132.453 109.298 132.28C109.703 132.103 110.163 132.014 110.678 132.014C111.171 132.014 111.61 132.091 111.998 132.246C112.39 132.396 112.72 132.62 112.989 132.916C113.262 133.208 113.47 133.572 113.611 134.01C113.757 134.447 113.83 134.949 113.83 135.514ZM112.613 135.568C112.613 135.145 112.565 134.775 112.469 134.461C112.378 134.142 112.246 133.878 112.073 133.668C111.9 133.454 111.688 133.294 111.437 133.189C111.191 133.08 110.915 133.025 110.61 133.025C110.255 133.025 109.949 133.096 109.694 133.237C109.443 133.374 109.236 133.559 109.072 133.791C108.913 134.023 108.794 134.295 108.717 134.604C108.644 134.91 108.607 135.231 108.607 135.568C108.607 135.992 108.653 136.364 108.744 136.683C108.84 137.002 108.974 137.268 109.147 137.482C109.32 137.692 109.53 137.852 109.776 137.961C110.022 138.066 110.3 138.118 110.61 138.118C110.966 138.118 111.269 138.05 111.519 137.913C111.774 137.772 111.982 137.585 112.141 137.353C112.305 137.12 112.424 136.851 112.497 136.546C112.574 136.236 112.613 135.91 112.613 135.568ZM121.069 139H120.003L119.962 137.893C119.757 138.13 119.561 138.328 119.374 138.487C119.191 138.642 119.009 138.768 118.827 138.863C118.645 138.959 118.46 139.025 118.273 139.062C118.091 139.103 117.897 139.123 117.692 139.123C116.986 139.123 116.453 138.916 116.093 138.501C115.733 138.086 115.552 137.46 115.552 136.621V132.137H116.742V136.525C116.742 137.578 117.138 138.104 117.931 138.104C118.077 138.104 118.219 138.084 118.355 138.043C118.497 137.997 118.642 137.922 118.793 137.817C118.948 137.708 119.112 137.562 119.285 137.38C119.463 137.198 119.661 136.967 119.88 136.689V132.137H121.069V139ZM123.53 132.137H124.617L124.651 133.401C125.057 132.914 125.455 132.561 125.847 132.342C126.244 132.123 126.643 132.014 127.044 132.014C127.755 132.014 128.292 132.244 128.657 132.704C129.026 133.164 129.197 133.848 129.17 134.755H127.967C127.98 134.153 127.891 133.718 127.7 133.449C127.513 133.176 127.237 133.039 126.873 133.039C126.713 133.039 126.552 133.069 126.387 133.128C126.228 133.183 126.062 133.274 125.888 133.401C125.72 133.524 125.54 133.684 125.348 133.88C125.157 134.076 124.952 134.313 124.733 134.591V139H123.53V132.137ZM136.382 137.127C136.382 137.368 136.341 137.585 136.259 137.776C136.177 137.968 136.065 138.139 135.924 138.289C135.782 138.435 135.618 138.56 135.431 138.665C135.245 138.77 135.044 138.856 134.83 138.925C134.62 138.993 134.404 139.043 134.18 139.075C133.957 139.107 133.738 139.123 133.524 139.123C133.059 139.123 132.631 139.103 132.239 139.062C131.852 139.021 131.471 138.954 131.097 138.863V137.77C131.498 137.883 131.897 137.97 132.294 138.029C132.69 138.089 133.084 138.118 133.476 138.118C134.046 138.118 134.468 138.041 134.741 137.886C135.014 137.731 135.151 137.51 135.151 137.223C135.151 137.1 135.128 136.99 135.083 136.895C135.042 136.794 134.964 136.701 134.85 136.614C134.736 136.523 134.559 136.43 134.317 136.334C134.08 136.238 133.754 136.129 133.34 136.006C133.03 135.915 132.743 135.812 132.478 135.698C132.219 135.58 131.993 135.441 131.802 135.281C131.61 135.122 131.46 134.935 131.35 134.721C131.241 134.507 131.186 134.254 131.186 133.962C131.186 133.771 131.23 133.561 131.316 133.333C131.407 133.105 131.56 132.893 131.774 132.697C131.988 132.501 132.278 132.34 132.642 132.212C133.007 132.08 133.463 132.014 134.01 132.014C134.278 132.014 134.577 132.03 134.905 132.062C135.233 132.089 135.575 132.139 135.93 132.212V133.271C135.557 133.18 135.201 133.114 134.864 133.073C134.531 133.028 134.242 133.005 133.996 133.005C133.7 133.005 133.449 133.028 133.244 133.073C133.043 133.119 132.879 133.183 132.752 133.265C132.629 133.342 132.54 133.436 132.485 133.545C132.43 133.65 132.403 133.764 132.403 133.887C132.403 134.01 132.426 134.121 132.471 134.222C132.522 134.322 132.61 134.42 132.738 134.516C132.87 134.607 133.052 134.7 133.285 134.796C133.517 134.887 133.82 134.987 134.194 135.097C134.6 135.215 134.941 135.34 135.219 135.473C135.497 135.6 135.723 135.744 135.896 135.903C136.069 136.063 136.192 136.243 136.265 136.443C136.343 136.644 136.382 136.872 136.382 137.127ZM144.441 135.206C144.441 135.375 144.439 135.516 144.434 135.63C144.43 135.744 144.423 135.851 144.414 135.951H139.594C139.594 136.653 139.79 137.193 140.182 137.571C140.574 137.945 141.139 138.132 141.878 138.132C142.078 138.132 142.279 138.125 142.479 138.111C142.68 138.093 142.873 138.07 143.06 138.043C143.247 138.016 143.425 137.986 143.594 137.954C143.767 137.918 143.926 137.879 144.072 137.838V138.815C143.748 138.907 143.382 138.979 142.971 139.034C142.566 139.093 142.144 139.123 141.707 139.123C141.119 139.123 140.613 139.043 140.189 138.884C139.765 138.724 139.417 138.494 139.143 138.193C138.874 137.888 138.674 137.517 138.542 137.079C138.414 136.637 138.35 136.138 138.35 135.582C138.35 135.099 138.419 134.643 138.555 134.215C138.697 133.782 138.899 133.404 139.164 133.08C139.433 132.752 139.761 132.492 140.148 132.301C140.536 132.109 140.975 132.014 141.468 132.014C141.946 132.014 142.37 132.089 142.739 132.239C143.108 132.39 143.418 132.604 143.669 132.882C143.924 133.155 144.115 133.49 144.243 133.887C144.375 134.279 144.441 134.718 144.441 135.206ZM143.204 135.035C143.218 134.73 143.188 134.452 143.115 134.201C143.042 133.946 142.928 133.727 142.773 133.545C142.623 133.363 142.434 133.221 142.206 133.121C141.978 133.016 141.714 132.964 141.413 132.964C141.153 132.964 140.916 133.014 140.702 133.114C140.488 133.215 140.303 133.356 140.148 133.538C139.993 133.72 139.868 133.939 139.772 134.194C139.677 134.45 139.617 134.73 139.594 135.035H143.204ZM148.679 130.318H146.649V129.341H149.883V138.009H151.927V139H146.424V138.009H148.679V130.318ZM160.13 130.448C159.505 130.316 158.968 130.25 158.516 130.25C157.445 130.25 156.91 130.811 156.91 131.932V133.135H159.918V134.126H156.91V139H155.7V134.126H153.492V133.135H155.7V132C155.7 130.173 156.652 129.259 158.557 129.259C159.031 129.259 159.555 129.313 160.13 129.423V130.448Z" fill="white"/>
</svg>