<svg width="12" height="12" viewBox="0 0 12 12" fill="none" xmlns="http://www.w3.org/2000/svg">
<path d="M6.30711 12C4.61772 12 3.03259 11.3452 1.84366 10.1563C0.654739 8.96746 1.47711e-07 7.38223 1.47711e-07 5.69282C-0.000252048 4.52739 0.322442 3.38469 0.932265 2.39154C1.54209 1.3984 2.41518 0.593659 3.45465 0.0666496C3.56159 0.0121349 3.68222 -0.00967351 3.80148 0.00394665C3.92074 0.0175668 4.03334 0.0660122 4.12524 0.143235C4.21713 0.220458 4.28425 0.323038 4.3182 0.43817C4.35216 0.553301 4.35145 0.675883 4.31617 0.790615C4.01955 1.74869 3.9904 2.7696 4.23186 3.74304C4.47332 4.71648 4.97621 5.60542 5.68619 6.31381C6.1957 6.8271 6.80196 7.23423 7.46987 7.51164C8.13779 7.78905 8.85409 7.93121 9.57733 7.92991C10.1306 7.93034 10.6808 7.84735 11.2093 7.68376C11.324 7.64845 11.4466 7.64773 11.5618 7.68168C11.6769 7.71563 11.7795 7.78274 11.8567 7.87465C11.934 7.96655 11.9824 8.07917 11.996 8.19845C12.0096 8.31772 11.9878 8.43836 11.9333 8.5453C11.4063 9.58477 10.6015 10.4579 9.60838 11.0677C8.61524 11.6775 7.47254 12.0002 6.30711 12ZM3.43282 0.994294C2.62677 1.48472 1.96093 2.17487 1.49971 2.99798C1.03848 3.82109 0.797479 4.7493 0.800017 5.69282C0.800017 8.72946 3.27047 11.2 6.30711 11.2C7.25063 11.2025 8.17884 10.9615 9.00196 10.5003C9.82507 10.0391 10.5152 9.37323 11.0057 8.56718C10.5373 8.67557 10.0581 8.7302 9.57738 8.73001C8.74905 8.73158 7.92863 8.56885 7.16362 8.25122C6.39861 7.93359 5.7042 7.46738 5.12058 6.87957C4.3624 6.12283 3.80957 5.18536 3.51427 4.15566C3.21897 3.12596 3.19094 2.03799 3.43282 0.994444V0.994294Z" fill="white"/>
</svg>
