<svg width="12" height="12" viewBox="0 0 12 12" fill="none" xmlns="http://www.w3.org/2000/svg">
<path d="M5.99952 1.89586C6.09264 1.89586 6.18194 1.85887 6.24778 1.79303C6.31362 1.72719 6.35061 1.63789 6.35061 1.54477V0.351085C6.35061 0.257971 6.31362 0.168671 6.24778 0.10283C6.18194 0.0369892 6.09264 0 5.99952 0C5.90641 0 5.81711 0.0369892 5.75127 0.10283C5.68543 0.168671 5.64844 0.257971 5.64844 0.351085V1.54477C5.64844 1.63789 5.68543 1.72719 5.75127 1.79303C5.81711 1.85887 5.90641 1.89586 5.99952 1.89586Z" fill="#5855F4"/>
<path d="M5.99952 10.1042C5.90641 10.1042 5.81711 10.1412 5.75127 10.2071C5.68543 10.2729 5.64844 10.3622 5.64844 10.4553V11.649C5.64844 11.7421 5.68543 11.8314 5.75127 11.8973C5.81711 11.9631 5.90641 12.0001 5.99952 12.0001C6.09264 12.0001 6.18194 11.9631 6.24778 11.8973C6.31362 11.8314 6.35061 11.7421 6.35061 11.649V10.4553C6.35061 10.3622 6.31362 10.2729 6.24778 10.2071C6.18194 10.1412 6.09264 10.1042 5.99952 10.1042Z" fill="#5855F4"/>
<path d="M2.60183 3.10012C2.66711 3.15947 2.75234 3.19206 2.84057 3.19141C2.88677 3.19167 2.93257 3.18282 2.97535 3.16535C3.01813 3.14787 3.05703 3.12213 3.08984 3.08959C3.12274 3.05695 3.14886 3.01812 3.16669 2.97534C3.18451 2.93256 3.19369 2.88667 3.19369 2.84032C3.19369 2.79397 3.18451 2.74809 3.16669 2.7053C3.14886 2.66252 3.12274 2.62369 3.08984 2.59105L2.25425 1.75898C2.18709 1.70146 2.1007 1.67141 2.01234 1.67482C1.92398 1.67824 1.84016 1.71486 1.77764 1.77739C1.71511 1.83992 1.67848 1.92374 1.67507 2.01209C1.67165 2.10045 1.70171 2.18685 1.75923 2.25401L2.60183 3.10012Z" fill="#5855F4"/>
<path d="M9.39867 8.89988C9.36593 8.86715 9.32707 8.84118 9.2843 8.82346C9.24153 8.80575 9.19569 8.79663 9.1494 8.79663C9.1031 8.79663 9.05726 8.80575 9.01449 8.82346C8.97172 8.84118 8.93286 8.86715 8.90013 8.89988C8.86739 8.93262 8.84142 8.97148 8.82371 9.01425C8.80599 9.05702 8.79687 9.10286 8.79688 9.14915C8.79688 9.19545 8.80599 9.24129 8.82371 9.28406C8.84142 9.32683 8.86739 9.36569 8.90013 9.39842L9.74624 10.241C9.77876 10.2742 9.81753 10.3006 9.86032 10.3187C9.90311 10.3367 9.94906 10.3462 9.99551 10.3464C10.0881 10.345 10.1764 10.3072 10.2413 10.241C10.3067 10.1752 10.3434 10.0863 10.3434 9.99351C10.3434 9.90076 10.3067 9.81178 10.2413 9.746L9.39867 8.89988Z" fill="#5855F4"/>
<path d="M1.89586 6.00001C1.89586 5.9069 1.85887 5.8176 1.79303 5.75176C1.72719 5.68591 1.63789 5.64893 1.54477 5.64893H0.351085C0.257971 5.64893 0.168671 5.68591 0.10283 5.75176C0.0369892 5.8176 0 5.9069 0 6.00001C0 6.09312 0.0369892 6.18242 0.10283 6.24827C0.168671 6.31411 0.257971 6.3511 0.351085 6.3511H1.54477C1.63789 6.3511 1.72719 6.31411 1.79303 6.24827C1.85887 6.18242 1.89586 6.09312 1.89586 6.00001Z" fill="#5855F4"/>
<path d="M11.6493 5.64893H10.4556C10.3625 5.64893 10.2732 5.68591 10.2073 5.75176C10.1415 5.8176 10.1045 5.9069 10.1045 6.00001C10.1045 6.09312 10.1415 6.18242 10.2073 6.24827C10.2732 6.31411 10.3625 6.3511 10.4556 6.3511H11.6493C11.7424 6.3511 11.8317 6.31411 11.8975 6.24827C11.9634 6.18242 12.0003 6.09312 12.0003 6.00001C12.0003 5.9069 11.9634 5.8176 11.8975 5.75176C11.8317 5.68591 11.7424 5.64893 11.6493 5.64893Z" fill="#5855F4"/>
<path d="M2.60173 8.89988L1.75913 9.746C1.70983 9.79489 1.67613 9.85731 1.66231 9.92535C1.64848 9.9934 1.65514 10.064 1.68144 10.1283C1.70775 10.1925 1.75252 10.2476 1.81009 10.2864C1.86766 10.3252 1.93545 10.3461 2.00489 10.3464C2.05134 10.3462 2.09729 10.3367 2.14008 10.3187C2.18287 10.3006 2.22164 10.2742 2.25416 10.241L3.10027 9.39842C3.16638 9.33231 3.20352 9.24265 3.20352 9.14915C3.20352 9.05566 3.16638 8.96599 3.10027 8.89988C3.03416 8.83377 2.94449 8.79663 2.851 8.79663C2.75751 8.79663 2.66784 8.83377 2.60173 8.89988Z" fill="#5855F4"/>
<path d="M9.15976 3.19129C9.20597 3.19156 9.25177 3.1827 9.29455 3.16523C9.33732 3.14776 9.37623 3.12202 9.40903 3.08948L10.2516 2.24336C10.317 2.17758 10.3537 2.0886 10.3537 1.99585C10.3537 1.9031 10.317 1.81411 10.2516 1.74833C10.1859 1.68294 10.0969 1.64624 10.0041 1.64624C9.91137 1.64624 9.82239 1.68294 9.75661 1.74833L8.91049 2.59094C8.87758 2.62357 8.85147 2.6624 8.83364 2.70519C8.81582 2.74797 8.80664 2.79386 8.80664 2.84021C8.80664 2.88655 8.81582 2.93244 8.83364 2.97523C8.85147 3.01801 8.87758 3.05684 8.91049 3.08948C8.9433 3.12202 8.9822 3.14776 9.02498 3.16523C9.06775 3.1827 9.11356 3.19156 9.15976 3.19129Z" fill="#5855F4"/>
<path d="M6.04549 2.40142C5.34021 2.39236 4.64817 2.59323 4.05733 2.97848C3.4665 3.36373 3.00356 3.91596 2.72736 4.56497C2.45117 5.21399 2.37419 5.93047 2.50622 6.62334C2.63825 7.31621 2.97333 7.95418 3.46884 8.45614C3.96436 8.9581 4.59795 9.30138 5.28905 9.44235C5.98016 9.58331 6.69758 9.5156 7.35011 9.24781C8.00263 8.98002 8.5608 8.52425 8.95364 7.93844C9.34649 7.35263 9.55628 6.66324 9.55634 5.9579C9.56101 5.02113 9.19408 4.12072 8.53596 3.45405C7.87784 2.78738 6.98225 2.40884 6.04549 2.40142ZM6.04549 8.80871C5.47895 8.81777 4.92254 8.65801 4.44711 8.34978C3.97167 8.04154 3.59873 7.59878 3.37578 7.07788C3.15283 6.55698 3.08996 5.98151 3.19517 5.42475C3.30038 4.868 3.56892 4.35515 3.96657 3.95153C4.36423 3.54791 4.87302 3.27177 5.42815 3.15828C5.98328 3.04479 6.55962 3.09909 7.08378 3.31426C7.60795 3.52943 8.05621 3.89574 8.37149 4.36653C8.68677 4.83732 8.85479 5.3913 8.85417 5.9579C8.85792 6.70785 8.56455 7.42876 8.03821 7.96299C7.51188 8.49722 6.79541 8.8013 6.04549 8.80871Z" fill="#5855F4"/>
</svg>
