<svg width="129" height="22" viewBox="0 0 129 22" fill="none" xmlns="http://www.w3.org/2000/svg">
<path fill-rule="evenodd" clip-rule="evenodd" d="M54.8966 7.27384C55.489 6.45312 57.5119 5.49846 59.2791 5.49846C63.235 5.49846 66.4295 8.41655 66.4295 11.7988V20.6192C66.4295 21.3784 65.8099 21.9938 65.0455 21.9938C64.2812 21.9938 63.6616 21.3784 63.6616 20.6192V11.7988C63.6616 9.9887 61.7557 8.24768 59.2791 8.24768C56.8025 8.24768 54.8966 9.9887 54.8966 11.7988V20.6192C54.8966 21.3784 54.277 21.9938 53.5126 21.9938C52.7483 21.9938 52.1287 21.3784 52.1287 20.6192V1.37461C52.1287 0.615436 52.7483 0 53.5126 0C54.277 0 54.8966 0.615436 54.8966 1.37461V7.27384ZM85.3434 13.7462C85.3434 17.1746 86.1515 18.8939 87.568 19.2949C88.303 19.5029 88.7291 20.2635 88.5196 20.9936C88.3102 21.7237 87.5445 22.1469 86.8094 21.9388C85.2715 21.5035 84.1712 20.4892 83.4783 18.9548C81.9557 20.8095 79.637 21.9938 77.0397 21.9938C72.4537 21.9938 68.736 18.3012 68.736 13.7462C68.736 9.19108 72.4537 5.49847 77.0397 5.49847C81.6257 5.49847 85.3434 9.19108 85.3434 13.7462ZM77.0397 19.2446C80.097 19.2446 82.5755 16.7829 82.5755 13.7462C82.5755 10.7094 80.097 8.2477 77.0397 8.2477C73.9824 8.2477 71.504 10.7094 71.504 13.7462C71.504 16.7829 73.9824 19.2446 77.0397 19.2446ZM43.133 19.2446C41.2309 19.2446 39.148 18.4794 38.4341 17.6201C37.9477 17.0345 37.0754 16.9514 36.4858 17.4346C35.8963 17.9177 35.8127 18.7841 36.2991 19.3697C37.5714 20.9014 40.216 21.9938 42.9024 21.9938C46.7401 21.9938 49.8221 20.038 49.8221 16.9536C49.8221 15.2634 48.8685 13.9311 47.2562 13.1102C46.1431 12.5436 44.7733 12.239 43.133 12.037C41.7824 11.8707 41.1833 11.6456 40.5206 11.2963C39.9129 10.9761 39.6732 10.631 39.6732 9.96596C39.6732 9.41544 39.8973 9.08168 40.4352 8.79199C41.0843 8.44239 41.8743 8.2477 43.1331 8.2477C44.5333 8.2477 45.9265 8.70229 46.5819 9.27408C47.1561 9.77509 48.0306 9.71884 48.535 9.14846C49.0394 8.57807 48.7521 7.70953 48.1778 7.20852C46.9823 6.16551 44.9381 5.49847 43.1331 5.49847C41.4526 5.49847 40.2284 5.77598 39.1158 6.37519C37.7176 7.12824 36.9053 8.37605 36.9053 9.96596C36.9053 11.6066 37.7627 12.8405 39.2232 13.6103C40.2591 14.1563 41.4676 14.4618 43.133 14.6534C44.585 14.8205 45.5907 15.0625 46.179 15.4644C46.7672 15.8664 47.0542 16.3764 47.0542 17.0681C47.0542 18.3101 45.6317 19.2446 43.133 19.2446ZM33.6761 20.6192V13.7462C33.6761 9.19108 29.9584 5.49847 25.3724 5.49847C20.7864 5.49847 17.0687 9.19108 17.0687 13.7462C17.0687 18.3012 20.7864 21.9938 25.3724 21.9938C27.9604 21.9938 29.9004 20.7415 30.9082 19.4355V20.6192C30.9082 21.3784 31.5278 21.9938 32.2921 21.9938C33.0565 21.9938 33.6761 21.3784 33.6761 20.6192ZM30.9082 13.7462C30.9082 16.7829 28.4297 19.2446 25.3724 19.2446C22.315 19.2446 19.8366 16.7829 19.8366 13.7462C19.8366 10.7094 22.315 8.2477 25.3724 8.2477C28.4297 8.2477 30.9082 10.7094 30.9082 13.7462ZM2.76827 9.16423C2.76827 8.65799 3.18135 8.2477 3.69091 8.2477H7.03805C10.0387 8.29609 12.4556 10.7403 12.4556 13.7462C12.4556 16.7522 10.0385 19.1962 7.03803 19.2439L3.69031 19.2446C3.18107 19.2447 2.76795 18.8344 2.7679 18.3282L2.76827 9.16423ZM7.05826 21.9931C11.5779 21.9343 15.2234 18.2645 15.2234 13.7462C15.2234 9.2278 11.5779 5.55805 7.05826 5.49847H3.6909C1.65268 5.49847 0.00037802 7.13963 0.00037802 9.16411L0 18.3286C0.000208796 20.3531 1.65268 21.994 3.6909 21.9938L7.05826 21.9931Z" fill="white"/>
<path fill-rule="evenodd" clip-rule="evenodd" d="M86.7277 5.44292C88.241 5.44292 89.4677 4.22448 89.4677 2.72146C89.4677 1.21844 88.241 0 86.7277 0C85.2145 0 83.9878 1.21844 83.9878 2.72146C83.9878 4.22448 85.2145 5.44292 86.7277 5.44292Z" fill="#02CCCB"/>
<rect x="98.5" y="5.5" width="30" height="14" rx="1.5" stroke="white"/>
<path d="M106.948 12.3414C107.376 12.4537 107.712 12.6586 107.957 12.9561C108.202 13.2469 108.325 13.6171 108.325 14.0666C108.325 14.6681 108.083 15.1308 107.6 15.4547C107.123 15.7786 106.427 15.9405 105.509 15.9405H102V9H105.299C106.139 9 106.787 9.15864 107.243 9.47592C107.705 9.7932 107.936 10.2328 107.936 10.7946C107.936 11.1582 107.845 11.4721 107.663 11.7365C107.488 12.0009 107.25 12.2026 106.948 12.3414ZM103.051 9.80312V12.0241H105.204C105.744 12.0241 106.157 11.9315 106.444 11.7465C106.738 11.5548 106.885 11.2771 106.885 10.9136C106.885 10.55 106.738 10.2757 106.444 10.0907C106.157 9.89896 105.744 9.80312 105.204 9.80312H103.051ZM105.467 15.1374C106.062 15.1374 106.511 15.0449 106.812 14.8598C107.113 14.6747 107.264 14.3839 107.264 13.9873C107.264 13.2139 106.665 12.8272 105.467 12.8272H103.051V15.1374H105.467Z" fill="white"/>
<path d="M114.837 13.3428C114.837 13.4155 114.83 13.5113 114.816 13.6303H110.298C110.361 14.093 110.575 14.4665 110.939 14.7507C111.31 15.0283 111.769 15.1671 112.315 15.1671C112.981 15.1671 113.516 14.9556 113.923 14.5326L114.48 15.1473C114.227 15.4249 113.912 15.6365 113.534 15.7819C113.163 15.9273 112.746 16 112.284 16C111.695 16 111.174 15.8876 110.718 15.6629C110.263 15.4315 109.909 15.111 109.657 14.7011C109.412 14.2913 109.29 13.8286 109.29 13.313C109.29 12.8041 109.409 12.3447 109.647 11.9348C109.892 11.525 110.225 11.2077 110.645 10.983C111.072 10.7517 111.552 10.636 112.084 10.636C112.616 10.636 113.089 10.7517 113.502 10.983C113.923 11.2077 114.248 11.525 114.48 11.9348C114.718 12.3447 114.837 12.814 114.837 13.3428ZM112.084 11.4391C111.601 11.4391 111.195 11.5779 110.865 11.8555C110.543 12.1331 110.354 12.4967 110.298 12.9462H113.87C113.814 12.5033 113.622 12.1431 113.292 11.8654C112.97 11.5812 112.567 11.4391 112.084 11.4391Z" fill="white"/>
<path d="M119.368 15.6331C119.221 15.7521 119.039 15.8447 118.822 15.9108C118.605 15.9703 118.38 16 118.149 16C117.589 16 117.155 15.8579 116.847 15.5737C116.538 15.2894 116.384 14.8829 116.384 14.3541V11.4688H115.439V10.6856H116.384V9.53541H117.393V10.6856H118.99V11.4688H117.393V14.3144C117.393 14.5987 117.466 14.8168 117.614 14.9688C117.768 15.1209 117.985 15.1969 118.265 15.1969C118.573 15.1969 118.836 15.1143 119.053 14.949L119.368 15.6331Z" fill="white"/>
<path d="M122.615 10.636C123.386 10.636 123.974 10.8144 124.38 11.1714C124.793 11.5283 125 12.0604 125 12.7677V15.9405H124.044V15.2465C123.876 15.491 123.634 15.6794 123.319 15.8116C123.011 15.9372 122.643 16 122.216 16C121.593 16 121.092 15.8579 120.714 15.5737C120.342 15.2894 120.157 14.916 120.157 14.4533C120.157 13.9906 120.335 13.6204 120.692 13.3428C121.05 13.0585 121.617 12.9164 122.394 12.9164H123.991V12.728C123.991 12.3182 123.865 12.0042 123.613 11.7861C123.361 11.568 122.99 11.4589 122.5 11.4589C122.17 11.4589 121.848 11.5118 121.533 11.6176C121.218 11.7167 120.952 11.8522 120.735 12.0241L120.314 11.3102C120.601 11.0921 120.945 10.9268 121.344 10.8144C121.743 10.6955 122.167 10.636 122.615 10.636ZM122.384 15.2663C122.769 15.2663 123.102 15.187 123.382 15.0283C123.662 14.8631 123.865 14.6317 123.991 14.3343V13.6006H122.437C121.582 13.6006 121.155 13.8716 121.155 14.4136C121.155 14.678 121.263 14.8862 121.48 15.0382C121.698 15.1903 121.999 15.2663 122.384 15.2663Z" fill="white"/>
</svg>
