<svg width="24" height="24" viewBox="0 0 24 24" fill="none" xmlns="http://www.w3.org/2000/svg">
<path fill-rule="evenodd" clip-rule="evenodd" d="M12.0238 1C5.6569 1 0.5 6.04701 0.5 12.2782C0.5 17.2688 3.79869 21.4841 8.3794 22.9785C8.9556 23.0771 9.17167 22.7388 9.17167 22.4427C9.17167 22.1749 9.15726 21.2867 9.15726 20.3422C6.2619 20.8638 5.51286 19.6514 5.28238 19.017C5.15274 18.6927 4.59095 17.6918 4.10119 17.4239C3.69786 17.2125 3.12167 16.6908 4.08679 16.6767C4.99429 16.6626 5.6425 17.4944 5.85857 17.8328C6.89571 19.5386 8.55226 19.0593 9.21488 18.7632C9.31571 18.0301 9.61821 17.5367 9.94952 17.2548C7.38548 16.9728 4.70619 16 4.70619 11.6861C4.70619 10.4596 5.15274 9.44458 5.88738 8.6551C5.77214 8.37314 5.36881 7.21713 6.00262 5.66637C6.00262 5.66637 6.96774 5.37032 9.17167 6.82239C10.0936 6.56863 11.0731 6.44175 12.0526 6.44175C13.0321 6.44175 14.0117 6.56863 14.9336 6.82239C17.1375 5.35622 18.1026 5.66637 18.1026 5.66637C18.7364 7.21713 18.3331 8.37314 18.2179 8.6551C18.9525 9.44458 19.399 10.4455 19.399 11.6861C19.399 16.0141 16.7054 16.9728 14.1413 17.2548C14.559 17.6072 14.9192 18.2839 14.9192 19.3412C14.9192 20.8497 14.9048 22.0621 14.9048 22.4427C14.9048 22.7388 15.1208 23.0912 15.697 22.9785C20.2489 21.4841 23.5476 17.2548 23.5476 12.2782C23.5476 6.04701 18.3907 1 12.0238 1Z" fill="#0A1C61"/>
</svg>
