<svg width="24" height="24" viewBox="0 0 24 24" fill="none" xmlns="http://www.w3.org/2000/svg">
<path fill-rule="evenodd" clip-rule="evenodd" d="M9.10694 1H9.10419C7.82727 1 6.79144 2.03583 6.79144 3.31275C6.79144 4.58966 7.82727 5.6255 9.10419 5.6255H11.4151V3.30816C11.4142 2.03308 10.3811 1 9.10694 1ZM3.32863 17.2215C2.05171 17.2215 1.01588 16.1856 1.01588 14.9087C1.01588 13.6318 2.05171 12.596 3.32863 12.596H3.33046H5.64138V14.9087C5.64138 16.1856 4.60554 17.2215 3.32863 17.2215ZM6.79331 14.9087C6.79331 13.6327 7.82822 12.5978 9.10422 12.5978C10.3793 12.5978 11.4142 13.6327 11.4151 14.9087V20.6892C11.4151 21.9652 10.3802 23.0002 9.10422 23.0002C7.82822 23.0002 6.79331 21.9652 6.79331 20.6892V14.9087ZM9.10424 11.4225H3.31275C2.03583 11.4225 1 10.3867 1 9.10979C1 7.83288 2.03583 6.79704 3.31275 6.79704H9.10424C10.3812 6.79704 11.417 7.83288 11.417 9.10979C11.417 10.3867 10.3812 11.4225 9.10424 11.4225ZM20.6666 6.79704C19.3915 6.79704 18.3584 7.83013 18.3584 9.10521V9.10979V11.4225H20.6694C21.9463 11.4225 22.9821 10.3867 22.9821 9.10979C22.9821 7.83288 21.9463 6.79704 20.6694 6.79704H20.6666ZM12.5857 9.11069V3.31278C12.5857 2.03678 13.6206 1.00187 14.8966 1.00187C16.1726 1.00187 17.2075 2.03678 17.2075 3.31278V9.11069C17.2075 10.3867 16.1726 11.4216 14.8966 11.4216C13.6206 11.4216 12.5857 10.3867 12.5857 9.11069ZM17.2066 20.6871C17.2066 19.4111 16.1717 18.3762 14.8957 18.3762H12.5847V20.6889C12.5857 21.964 13.6197 22.998 14.8957 22.998C16.1717 22.998 17.2066 21.9631 17.2066 20.6871ZM14.8956 12.596H20.6871C21.964 12.596 22.9999 13.6318 22.9999 14.9087C22.9999 16.1856 21.964 17.2215 20.6871 17.2215H14.8956C13.6187 17.2215 12.5829 16.1856 12.5829 14.9087C12.5829 13.6318 13.6187 12.596 14.8956 12.596Z" fill="#0A1C61"/>
</svg>
