<svg width="50" height="37" viewBox="0 0 50 37" fill="none" xmlns="http://www.w3.org/2000/svg">
<path fill-rule="evenodd" clip-rule="evenodd" d="M50 36.0742H0V0.0742188H50V36.0742ZM10.6311 12.7063L14.6226 13.6865C15.4758 13.9032 16.2992 14.1697 16.9953 14.5808V11.4998H15.0956C15.0076 10.7495 14.7357 8.99559 11.7574 8.99559C10.4491 8.99559 8.89149 9.49679 8.89149 10.977C8.89149 12.2723 9.95169 12.5466 10.6311 12.7063ZM16.9953 22.2297C15.4199 23.3905 13.312 23.5418 12.4558 23.5418C6.49921 23.5418 5.46162 20.0598 5.46162 18.0112H8.73383C8.73383 18.944 9.23002 20.6961 12.2083 20.6961C13.8325 20.6961 15.6394 20.2873 15.6394 18.5562C15.6394 17.2597 14.3971 16.941 12.6599 16.5082L9.36626 15.6895C7.04299 15.121 5.70912 13.7303 5.70912 11.2273C5.70912 9.40615 6.70447 6.15165 12.0072 6.15165C14.456 6.15165 16.0273 6.94517 16.9953 7.99499V6.58322H20.1782V15.5082L24.1912 10.8623H28.0964L23.8318 15.597L28.21 23.1102H24.3952L21.5056 17.8515L20.1782 19.2387L20.1747 23.1102H16.9953V22.2297ZM7.44875 30.6781C7.62663 30.7345 7.8783 30.7627 8.20373 30.7627C8.29774 30.7627 8.4197 30.7249 8.56903 30.6486C8.71836 30.573 8.8671 30.4596 9.01584 30.3083C9.16398 30.1571 9.28356 29.9722 9.37578 29.7543L11.3498 25.1577H10.0397L8.92719 28.2417L7.45529 25.1577H6.09167L8.37865 29.4242L8.35604 29.4716C8.24835 29.6817 8.07522 29.7867 7.83725 29.7867C7.71171 29.7867 7.58201 29.7561 7.44875 29.6949V30.6781ZM14.7898 30.6781H13.7243V28.9938C13.6178 29.0556 13.4494 29.1342 13.2185 29.2285C12.9877 29.3227 12.7557 29.3701 12.5213 29.3701C12.0947 29.3701 11.7585 29.2561 11.5122 29.0286C11.2653 28.8005 11.1422 28.4386 11.1422 27.941V26.588H12.2083V27.9098C12.2083 28.2783 12.4392 28.4632 12.902 28.4632C13.0448 28.4632 13.1977 28.4314 13.3613 28.3689C13.5249 28.3053 13.6463 28.2525 13.7243 28.2099V26.588H14.7898V30.6781ZM17.5105 28.9098C17.8776 28.8521 18.1197 28.7777 18.2357 28.6865V29.2099C18.2357 29.3695 18.1905 29.5106 18.0995 29.633C18.0085 29.7555 17.8895 29.8497 17.7431 29.9164C17.5968 29.9824 17.4433 30.016 17.2838 30.016C17.1583 30.016 17.0441 29.9758 16.9417 29.8971C16.8382 29.8173 16.787 29.6937 16.787 29.5244C16.787 29.3833 16.818 29.2723 16.8799 29.1913C16.9423 29.1096 17.0244 29.049 17.1274 29.0088C17.2303 28.9692 17.3582 28.9362 17.5105 28.9098ZM19.3406 30.3425C19.3001 30.2555 19.2799 30.1006 19.2799 29.8779V27.6637C19.2799 27.3557 19.1918 27.1138 19.0151 26.9374C18.8378 26.7609 18.629 26.6408 18.3869 26.5766C18.1447 26.513 17.9038 26.4812 17.6634 26.4812C17.3374 26.4812 17.05 26.5166 16.8025 26.5874C16.555 26.6583 16.3444 26.7981 16.1701 27.0076C15.9958 27.2171 15.8893 27.5184 15.8512 27.9116H16.8781C16.9001 27.7471 16.9566 27.612 17.0464 27.504C17.1363 27.3965 17.2987 27.3431 17.5349 27.3431C17.7348 27.3431 17.9014 27.3719 18.0358 27.4314C18.1691 27.4914 18.2357 27.6204 18.2357 27.8191C18.2357 27.9998 18.1114 28.1072 17.8621 28.1414L16.9019 28.2873C16.6657 28.3221 16.4592 28.3923 16.2843 28.4968C16.1094 28.6006 15.972 28.7459 15.8714 28.9308C15.7709 29.1162 15.7209 29.3371 15.7209 29.594C15.7209 29.8599 15.7786 30.0826 15.8946 30.2615C16.0106 30.441 16.1623 30.5724 16.3504 30.6577C16.5384 30.7429 16.74 30.7855 16.9542 30.7855C17.2743 30.7855 17.5301 30.7309 17.7205 30.6228C17.9115 30.5154 18.0935 30.3719 18.2661 30.1925C18.2821 30.3617 18.3149 30.5238 18.3643 30.6781H19.5167V30.5166C19.4393 30.4872 19.3804 30.4296 19.3406 30.3425ZM23.6962 29.1859C23.6843 29.3221 23.6486 29.4764 23.5891 29.6486C23.5308 29.8203 23.4326 29.9944 23.2952 30.1697C23.1583 30.3449 22.9691 30.4914 22.7282 30.609C22.4866 30.7261 22.1927 30.7855 21.8453 30.7855C21.4842 30.7855 21.1807 30.7231 20.9338 30.5994C20.6869 30.4752 20.4936 30.3137 20.3538 30.1132C20.2145 29.9134 20.1158 29.6949 20.0575 29.4602C19.9986 29.2243 19.9694 28.9878 19.9694 28.7483C19.9694 28.2957 20.0378 27.8989 20.1735 27.5592C20.3097 27.2201 20.5221 26.9548 20.8125 26.7657C21.1028 26.5754 21.4699 26.4812 21.9143 26.4812C22.1683 26.4812 22.4254 26.5268 22.6854 26.6186C22.9448 26.7111 23.172 26.8737 23.366 27.1078C23.5605 27.3419 23.673 27.6553 23.7039 28.0484H22.6229C22.5449 27.6078 22.3082 27.3875 21.9143 27.3875C21.7067 27.3875 21.5395 27.447 21.4122 27.5664C21.2854 27.6847 21.1962 27.8335 21.1444 28.0118C21.0933 28.1901 21.0671 28.3767 21.0671 28.5718C21.0671 28.7939 21.0826 28.9968 21.1117 29.1829C21.1421 29.3689 21.2176 29.5352 21.3402 29.6817C21.4621 29.8275 21.6454 29.9007 21.8899 29.9007C22.0523 29.9007 22.1886 29.8587 22.2986 29.7729C22.4081 29.6883 22.4884 29.5892 22.539 29.4746C22.5902 29.3611 22.6157 29.2651 22.6157 29.1859H23.6962ZM25.3138 27.4494V30.6781H26.38V27.4494H27.5931V26.588H24.1025V27.4494H25.3138ZM31.8172 30.6781H30.7523V29.064H29.2357V30.6781H28.1696V26.588H29.2357V28.2021H30.7523V26.588H31.8172V30.6781ZM35.3566 30.6781H36.4221V26.588H35.2798L33.84 29.0484V26.588H32.7739V30.6781H33.9162L35.3566 28.2177V30.6781ZM38.4443 30.6781H37.3782V26.588H38.4443V28.1408L39.7859 26.588H41.1174L39.6628 28.1721L41.1793 30.6781H39.8841L38.8852 28.9248L38.4443 29.3869V30.6781Z" fill="#D1DA00"/>
</svg>
