<svg width="52" height="24" viewBox="0 0 52 24" fill="none" xmlns="http://www.w3.org/2000/svg">
<rect width="52" height="24" rx="4" fill="white" fill-opacity="0.12"/>
<path d="M45.5259 16.5728H43.8853L40.3037 11.8779V16.5728H39V7H40.3037V11.4458L43.812 7H45.3574L41.5781 11.5483L45.5259 16.5728Z" fill="white" fill-opacity="0.5"/>
<path d="M11.433 16.75C10.523 16.75 9.69971 16.5507 8.96305 16.152C8.23505 15.7447 7.66305 15.19 7.24705 14.488C6.83105 13.7773 6.62305 12.98 6.62305 12.096C6.62305 11.212 6.83105 10.419 7.24705 9.717C7.66305 9.00633 8.23938 8.45167 8.97605 8.053C9.71271 7.64567 10.536 7.442 11.446 7.442C12.1567 7.442 12.8067 7.56333 13.396 7.806C13.9854 8.04 14.488 8.391 14.904 8.859L14.059 9.678C13.3744 8.95867 12.5207 8.599 11.498 8.599C10.822 8.599 10.211 8.75067 9.66505 9.054C9.11905 9.35733 8.69005 9.77767 8.37805 10.315C8.07471 10.8437 7.92305 11.4373 7.92305 12.096C7.92305 12.7547 8.07471 13.3527 8.37805 13.89C8.69005 14.4187 9.11905 14.8347 9.66505 15.138C10.211 15.4413 10.822 15.593 11.498 15.593C12.512 15.593 13.3657 15.229 14.059 14.501L14.904 15.32C14.488 15.788 13.981 16.1433 13.383 16.386C12.7937 16.6287 12.1437 16.75 11.433 16.75Z" fill="white" fill-opacity="0.5"/>
<path d="M20.4506 16.243C20.2686 16.399 20.0432 16.5203 19.7746 16.607C19.5059 16.685 19.2286 16.724 18.9426 16.724C18.2492 16.724 17.7119 16.5377 17.3306 16.165C16.9492 15.7923 16.7586 15.2593 16.7586 14.566V10.783H15.5886V9.756H16.7586V8.248H18.0066V9.756H19.9826V10.783H18.0066V14.514C18.0066 14.8867 18.0976 15.1727 18.2796 15.372C18.4702 15.5713 18.7389 15.671 19.0856 15.671C19.4669 15.671 19.7919 15.5627 20.0606 15.346L20.4506 16.243Z" fill="white" fill-opacity="0.5"/>
<path d="M23.1554 10.913C23.3721 10.5143 23.6927 10.211 24.1174 10.003C24.5421 9.795 25.0577 9.691 25.6644 9.691V10.9C25.5951 10.8913 25.4997 10.887 25.3784 10.887C24.7024 10.887 24.1694 11.0907 23.7794 11.498C23.3981 11.8967 23.2074 12.4687 23.2074 13.214V16.646H21.9594V9.756H23.1554V10.913Z" fill="white" fill-opacity="0.5"/>
<path d="M27.2026 7H28.4506V16.646H27.2026V7Z" fill="white" fill-opacity="0.5"/>
<path d="M36.6951 12.367H34.3291V14.694H33.2371V12.367H30.8711V11.34H33.2371V9H34.3291V11.34H36.6951V12.367Z" fill="white" fill-opacity="0.5"/>
<rect x="0.5" y="0.5" width="51" height="23" rx="3.5" stroke="#D9D9E2" stroke-opacity="0.5"/>
</svg>
