<svg width="33" height="24" viewBox="0 0 33 24" fill="none" xmlns="http://www.w3.org/2000/svg">
<rect x="0.5" y="0.5" width="32" height="23" rx="3.5" fill="white" fill-opacity="0.25"/>
<path d="M9.295 17.8C8.595 17.8 8.035 17.595 7.615 17.185C7.205 16.775 7 16.225 7 15.535C7 14.805 7.215 14.24 7.645 13.84C8.085 13.43 8.73 13.225 9.58 13.225H10.465V11.575H9.58C8.73 11.575 8.085 11.375 7.645 10.975C7.215 10.565 7 9.995 7 9.265C7 8.575 7.205 8.025 7.615 7.615C8.035 7.205 8.595 7 9.295 7C9.855 7 10.295 7.105 10.615 7.315C10.945 7.525 11.175 7.805 11.305 8.155C11.445 8.505 11.515 8.89 11.515 9.31V10.555H13.165V9.31C13.165 8.89 13.23 8.505 13.36 8.155C13.5 7.805 13.73 7.525 14.05 7.315C14.38 7.105 14.825 7 15.385 7C16.085 7 16.64 7.205 17.05 7.615C17.47 8.025 17.68 8.575 17.68 9.265C17.68 9.995 17.465 10.565 17.035 10.975C16.605 11.375 15.96 11.575 15.1 11.575H14.215V13.225H15.1C15.96 13.225 16.605 13.43 17.035 13.84C17.465 14.24 17.68 14.805 17.68 15.535C17.68 16.225 17.47 16.775 17.05 17.185C16.64 17.595 16.085 17.8 15.385 17.8C14.825 17.8 14.38 17.695 14.05 17.485C13.73 17.275 13.5 16.995 13.36 16.645C13.23 16.295 13.165 15.91 13.165 15.49V14.245H11.515V15.49C11.515 15.91 11.445 16.295 11.305 16.645C11.175 16.995 10.945 17.275 10.615 17.485C10.295 17.695 9.855 17.8 9.295 17.8ZM14.215 9.28V10.555H15.1C15.63 10.555 16.015 10.45 16.255 10.24C16.495 10.02 16.615 9.695 16.615 9.265C16.615 8.825 16.495 8.51 16.255 8.32C16.025 8.13 15.735 8.035 15.385 8.035C14.995 8.035 14.7 8.15 14.5 8.38C14.31 8.6 14.215 8.9 14.215 9.28ZM9.58 10.555H10.465V9.28C10.465 8.9 10.365 8.6 10.165 8.38C9.975 8.15 9.685 8.035 9.295 8.035C8.945 8.035 8.65 8.13 8.41 8.32C8.18 8.51 8.065 8.825 8.065 9.265C8.065 9.695 8.185 10.02 8.425 10.24C8.665 10.45 9.05 10.555 9.58 10.555ZM11.515 13.225H13.165V11.575H11.515V13.225ZM9.295 16.765C9.685 16.765 9.975 16.655 10.165 16.435C10.365 16.205 10.465 15.9 10.465 15.52V14.245H9.58C9.05 14.245 8.665 14.355 8.425 14.575C8.185 14.785 8.065 15.105 8.065 15.535C8.065 15.975 8.18 16.29 8.41 16.48C8.65 16.67 8.945 16.765 9.295 16.765ZM14.215 15.52C14.215 15.9 14.31 16.205 14.5 16.435C14.7 16.655 14.995 16.765 15.385 16.765C15.735 16.765 16.025 16.67 16.255 16.48C16.495 16.29 16.615 15.975 16.615 15.535C16.615 15.105 16.495 14.785 16.255 14.575C16.015 14.355 15.63 14.245 15.1 14.245H14.215V15.52Z" fill="#0A1C61" fill-opacity="0.5"/>
<path d="M26.1203 17.0728H24.4796L20.8981 12.3779V17.0728H19.5944V7.5H20.8981V11.9458L24.4064 7.5H25.9518L22.1725 12.0483L26.1203 17.0728Z" fill="#0A1C61" fill-opacity="0.5"/>
<rect x="0.5" y="0.5" width="32" height="23" rx="3.5" stroke="#D9D9E2"/>
</svg>
