<svg width="16" height="16" viewBox="0 0 16 16" fill="none" xmlns="http://www.w3.org/2000/svg">
<path fill-rule="evenodd" clip-rule="evenodd" d="M4.85482 4.1452C4.90138 4.19165 4.93832 4.24682 4.96353 4.30757C4.98873 4.36832 5.00171 4.43344 5.00171 4.4992C5.00171 4.56497 4.98873 4.63009 4.96353 4.69084C4.93832 4.75158 4.90138 4.80676 4.85482 4.8532L1.70782 7.9992L4.85482 11.1452C4.9487 11.2391 5.00145 11.3664 5.00145 11.4992C5.00145 11.632 4.9487 11.7593 4.85482 11.8532C4.76093 11.9471 4.63359 11.9998 4.50082 11.9998C4.36804 11.9998 4.2407 11.9471 4.14682 11.8532L0.646816 8.3532C0.600252 8.30676 0.563309 8.25158 0.538103 8.19084C0.512897 8.13009 0.499922 8.06497 0.499922 7.9992C0.499922 7.93344 0.512897 7.86832 0.538103 7.80757C0.563309 7.74682 0.600252 7.69165 0.646816 7.6452L4.14682 4.1452C4.19326 4.09864 4.24844 4.0617 4.30918 4.03649C4.36993 4.01128 4.43505 3.99831 4.50082 3.99831C4.56658 3.99831 4.6317 4.01128 4.69245 4.03649C4.75319 4.0617 4.80837 4.09864 4.85482 4.1452ZM11.1468 4.1452C11.1003 4.19165 11.0633 4.24682 11.0381 4.30757C11.0129 4.36832 10.9999 4.43344 10.9999 4.4992C10.9999 4.56497 11.0129 4.63009 11.0381 4.69084C11.0633 4.75158 11.1003 4.80676 11.1468 4.8532L14.2938 7.9992L11.1468 11.1452C11.1003 11.1917 11.0635 11.2469 11.0383 11.3076C11.0131 11.3684 11.0002 11.4335 11.0002 11.4992C11.0002 11.5649 11.0131 11.63 11.0383 11.6908C11.0635 11.7515 11.1003 11.8067 11.1468 11.8532C11.1933 11.8997 11.2485 11.9366 11.3092 11.9617C11.37 11.9869 11.4351 11.9998 11.5008 11.9998C11.5666 11.9998 11.6317 11.9869 11.6924 11.9617C11.7531 11.9366 11.8083 11.8997 11.8548 11.8532L15.3548 8.3532C15.4014 8.30676 15.4383 8.25158 15.4635 8.19084C15.4887 8.13009 15.5017 8.06497 15.5017 7.9992C15.5017 7.93344 15.4887 7.86832 15.4635 7.80757C15.4383 7.74682 15.4014 7.69165 15.3548 7.6452L11.8548 4.1452C11.8084 4.09864 11.7532 4.0617 11.6924 4.03649C11.6317 4.01128 11.5666 3.99831 11.5008 3.99831C11.435 3.99831 11.3699 4.01128 11.3092 4.03649C11.2484 4.0617 11.1933 4.09864 11.1468 4.1452ZM10.1478 1.0212C10.2744 1.06038 10.3803 1.14821 10.4422 1.2654C10.504 1.3826 10.5169 1.51956 10.4778 1.6462L6.47782 14.6462C6.43498 14.7681 6.34662 14.8687 6.23125 14.9269C6.11588 14.9851 5.98247 14.9963 5.85897 14.9583C5.73548 14.9203 5.6315 14.836 5.56883 14.723C5.50616 14.61 5.48967 14.4771 5.52282 14.3522L9.52282 1.3522C9.56199 1.2256 9.64982 1.11973 9.76702 1.05785C9.88421 0.995971 10.0212 0.98315 10.1478 1.0222V1.0212Z" fill="#A1A1BD"/>
</svg>
